<svg width="189" height="199" viewBox="0 0 189 199" fill="none" xmlns="http://www.w3.org/2000/svg">
<path d="M141.521 114.216C137.67 82.8501 127.408 58.2955 118.627 59.3776C113.279 60.0313 109.713 70.0565 108.613 84.8826C103.931 59.3173 95.1547 40.7612 87.5012 41.7061C82.153 42.3598 78.582 52.3848 77.4871 67.2109C72.7993 41.6456 64.0289 23.0897 56.3699 24.0345C47.5939 25.1332 43.6105 51.4126 47.4786 82.7787C51.3466 114.145 61.5915 138.699 70.373 137.623C75.7211 136.964 79.2918 126.938 80.3868 112.112C85.0691 137.678 93.8451 156.234 101.499 155.294C106.847 154.635 110.418 144.61 111.513 129.784C116.201 155.349 124.971 173.905 132.63 172.966C141.406 171.884 145.39 145.582 141.521 114.216Z" fill="#EDF0F5"/>
</svg>
