<svg width="189" height="199" viewBox="0 0 189 199" fill="none" xmlns="http://www.w3.org/2000/svg">
<path d="M139.739 106.081C150.803 97.8046 158.266 85.309 154.459 75.6333C150.585 65.7857 136.178 61.8019 122.234 63.5507C119.745 51.2901 112.902 40.6686 103.524 39.3899C93.8494 38.0707 84.1077 47.056 78.4944 58.7283C65.9522 52.2729 50.9804 51.0935 43.968 59.0335C36.7813 67.1712 40.1105 82.4315 48.4793 94.2086C38.0577 102.037 31.0941 113.459 34.326 122.75C37.9706 133.222 53.4517 137.749 68.1037 135.898C70.9811 148.328 78.3359 159.039 87.929 159.932C96.9893 160.779 105.74 152.715 111.046 141.991C124.483 147.318 140.066 146.914 146.246 137.995C151.971 129.771 148.039 116.517 139.739 106.081Z" fill="#EDF0F5"/>
</svg>
