<?xml version="1.0" encoding="UTF-8"?><svg id="b" xmlns="http://www.w3.org/2000/svg" viewBox="0 0 1013.97 1018.66"><defs><style>.d{fill:#edf0f5;}</style></defs><g id="c"><g><path class="d" d="m510.55,296.38c-118.36,0-214.3,95.95-214.3,214.3s95.95,214.3,214.3,214.3,214.3-95.95,214.3-214.3-95.95-214.3-214.3-214.3Zm0,415.05c-110.87,0-200.74-89.88-200.74-200.74s89.88-200.74,200.74-200.74,200.74,89.88,200.74,200.74-89.88,200.74-200.74,200.74Z"/><g><path class="d" d="m331.07,604.99c-23.89-63.32-11.98-114.73,4.26-137.53,15.15-21.28,18.32-20.21,31.25-28.77,49.95,18.18,95.82-6.23,147.92-29.81,12.26-5.55,41.36-23.68,47.42-50.55-23.36,3.34-176.21,11.7-202.42,71.61-7.08,5.82-22.47,14.88-35.74,35.98-15.08,23.97-15.92,52.15-16.57,54.47l11.12,73.2,12.77,11.39Z"/><path class="d" d="m383.77,403.47c-40.73,41.39,31.38,27.85,97.77-14.51,11.29-7.2,18.84-8.07,32-9.96,11.97-1.72,44.81-10.69,44.81-10.69l-12.54-3.4c-1.93-.52-3.86-1.05-5.8-1.53-27.75-6.91-55.49-4.98-82.81,2.79-13.51,3.84-26.65,9-39.16,15.4-6.25,3.2-12.35,6.7-18.26,10.5-5.03,3.24-16.01,11.41-16.01,11.41Z"/></g><path class="d" d="m484.73,678.61c-6.92-1.62-13.28-5.18-19.22-9.21-5.12-3.48-9.99-7.34-14.86-11.19-15.64-12.39-31.62-25.13-42.25-42.31-9.47-15.3-14.12-33.18-18.53-50.77-5.87-23.43-11.6-47.3-10.71-71.48.18-4.79,1.49-10.7,5.98-11.82,3.36-.84,6.6,1.61,9.21,3.97,30.41,27.53,52.83,64.42,63.67,104.75-.68-19.92-7.18-39.34-16.89-56.55-9.71-17.21-22.55-32.32-36.45-46.09,6.91.95,14.24,6.96,19.79,10.83,6.53,4.56,12.57,9.86,18.01,15.76,11.99,13.01,17.94,25.72,23.36,42.78,11.72,36.89,17.79,75.36,23.82,113.59"/><path class="d" d="m483.32,666.53c-4.66-8.01-7.72-17.8-10.04-27.79-10.54-45.3-6.33-97.56,11.13-137.93,3.71,44.32,5.46,89,5.24,133.66-.06,12.75-.36,25.95-4.08,37.46"/><path class="d" d="m972.84,217.09c6.97-16.18,19.13-31.12,35.5-38.39-10.95-3.3-31.99-7.35-40.87-40.3-4.58-17-6.53-34.07-8.71-52.4-2.68,21.31-4.73,39.5-10.98,59.6-5.5,17.69-15.72,33.57-35.75,36.52,20.46,6.47,33.13,27.05,39.88,47.42,4.4,13.27,7.07,27.29,6.73,41.3-.25,10.16.05,29.96-11.37,34.07,2.62,4.02,6.85,7.23,9.16,11.81,3.04,6.03,4.24,12.82,4.86,19.55-1.5-11.49,2.31-23.09,9.8-31.84-3.46-1.48-6.56-4.25-7.36-8.34-.58-2.95-.23-5.99,0-8.99,1.94-24.43-1.03-46.46,9.11-70.01Z"/><g><path class="d" d="m13.35,27.84c-.73-.57-1.45-1.14-2.18-1.71C.51,97.53-2.53,170.07,2.1,242.11c2.57,39.97,7.59,80.22,21.58,117.75,13.99,37.53,37.66,72.43,71.35,94.08,11.55,7.42,24.07,13.19,36.55,18.92,22.6,10.39,45.19,20.78,67.79,31.18,20.64-60.92,45.73-126.29,33.33-190.35-9.61-49.62-40.62-92.1-72.02-131.71C116.42,126.16,69.3,71.93,13.35,27.84Z"/><path class="d" d="m336.26,641.74c-27.03-25.17-55.36-52.51-63.91-88.44-3.08-12.94-3.39-26.37-3.06-39.67,1.42-57.05,14.34-113.11,27.19-168.71-16.15,15.15-26.79,35.12-37.14,54.69-8.82,16.7-17.75,33.66-21.67,52.13s-2.26,38.97,8.73,54.33c3.2,4.48,7.17,8.49,9.42,13.52,5.66,12.63-.83,28.09,4.39,40.91-6.8-4.82-12.41-11.31-16.2-18.73"/><path class="d" d="m339.48,233.16c-11.86-44.18-.78-92.83,24.82-130.74s64.63-65.56,107.13-82.46c7.1,17.39-10.1,50.94-23.17,72.3-.29.47.39.91.71.47,8.94-12.52,21.37-30.63,26.58-37.19,1.46,19.87-7.5,38.89-16.83,56.49-23.07,43.5-50.8,86.09-90.78,114.84-4.84,3.48-16.96,10.47-16.96,10.47-8.94,7.66-44.29,150.3-43.15,219.32-.16-1.74-10.72,73.51-10.72,73.51-5.74-35.39.35-196.14,42.36-297"/><path class="d" d="m199.84,475.72s8.4,19.29,16.34,29.81c30.46,40.37,103.26,121.01,129.19,133.45l94.19,72.5c-82.84-31.19-146.44-97.82-206.99-162.38-21.24-22.64-36.51-46.2-57.75-68.83l25.02-4.54Z"/></g><path class="d" d="m477.46,677.57c4.43,6.65,12.16,10.35,19.88,12.44s15.76,2.88,23.35,5.37c5.27,1.73,51.31,7.3,56.52,9.19,19.45,7.06-.19,1.96,20.4-.19l21.8-21.05c-13.73,6.91-29.33,9.48-44.7,9.4s-30.6-2.71-45.67-5.76c-3.81-.77-7.68-1.59-11.12-3.4-4.83-2.54-8.47-6.85-12.94-9.97-7.25-5.04-16.91-7.19-21.86-14.5"/><g><path class="d" d="m548.42,309.55c64.08,21.76,96.23,63.62,103.53,90.63,6.81,25.21,3.98,26.98,2.38,42.4-45.76,27.03-56.04,77.97-70.92,133.19-3.5,12.99-7.98,46.99,8.93,68.73,12.26-20.16,102.87-143.54,73.24-201.84,0-9.17,2.78-26.8-5.09-50.46-8.94-26.87-30.17-45.42-31.55-47.39l-63.61-37.9-16.91,2.63Z"/><path class="d" d="m670.62,478.24c-6.1-57.74-41.44,6.54-50.89,84.73-1.61,13.3-5.73,19.67-12.63,31.04-6.27,10.34-20.2,41.41-20.2,41.41l10.59-7.52c1.63-1.16,3.26-2.31,4.86-3.51,22.96-17.05,39.09-39.69,50.44-65.74,5.61-12.88,9.97-26.31,12.98-40.03,1.5-6.86,2.67-13.79,3.48-20.77.69-5.94,1.35-19.61,1.35-19.61Z"/></g><g><path class="d" d="m990.82,13.35c.57-.73,1.14-1.45,1.71-2.18C921.13.51,848.59-2.53,776.55,2.1c-39.97,2.57-80.22,7.59-117.75,21.58-37.53,13.99-72.43,37.66-94.08,71.35-7.42,11.55-13.19,24.07-18.92,36.55-10.39,22.6-20.78,45.19-31.18,67.79,60.92,20.64,126.29,45.73,190.35,33.33,49.62-9.61,92.1-40.62,131.71-72.02,55.83-44.25,110.06-91.37,154.14-147.33Z"/><path class="d" d="m376.92,336.26c25.17-27.03,52.51-55.36,88.44-63.91,12.94-3.08,26.37-3.39,39.67-3.06,57.05,1.42,113.11,14.34,168.71,27.19-15.15-16.15-35.12-26.79-54.69-37.14-16.7-8.82-33.66-17.75-52.13-21.67s-38.97-2.26-54.33,8.73c-4.48,3.2-8.49,7.17-13.52,9.42-12.63,5.66-28.09-.83-40.91,4.39,4.82-6.8,11.31-12.41,18.73-16.2"/><path class="d" d="m785.5,339.48c44.18-11.86,92.83-.78,130.74,24.82,37.91,25.6,65.56,64.63,82.46,107.13-17.39,7.1-50.94-10.1-72.3-23.17-.47-.29-.91.39-.47.71,12.52,8.94,30.63,21.37,37.19,26.58-19.87,1.46-38.89-7.5-56.49-16.83-43.5-23.07-86.09-50.8-114.84-90.78-3.48-4.84-10.47-16.96-10.47-16.96-7.66-8.94-150.3-44.29-219.32-43.15,1.74-.16-73.51-10.72-73.51-10.72,35.39-5.74,196.14.35,297,42.36"/><path class="d" d="m542.95,199.84s-19.29,8.4-29.81,16.34c-40.37,30.46-121.01,103.26-133.45,129.19l-72.5,94.19c31.19-82.84,97.82-146.44,162.38-206.99,22.64-21.24,46.2-36.51,68.83-57.75l4.54,25.02Z"/></g><g><path class="d" d="m1000.62,990.82c.73.57,1.45,1.14,2.18,1.71,10.65-71.4,13.69-143.94,9.07-215.98-2.57-39.97-7.59-80.22-21.58-117.75s-37.66-72.43-71.35-94.08c-11.55-7.42-24.07-13.19-36.55-18.92-22.6-10.39-45.19-20.78-67.79-31.18-20.64,60.92-45.73,126.29-33.33,190.35,9.61,49.62,40.62,92.1,72.02,131.71,44.25,55.83,91.37,110.06,147.33,154.14Z"/><path class="d" d="m677.71,376.92c27.03,25.17,55.36,52.51,63.91,88.44,3.08,12.94,3.39,26.37,3.06,39.67-1.42,57.05-14.34,113.11-27.19,168.71,16.15-15.15,26.79-35.12,37.14-54.69,8.82-16.7,17.75-33.66,21.67-52.13s2.26-38.97-8.73-54.33c-3.2-4.48-7.17-8.49-9.42-13.52-5.66-12.63.83-28.09-4.39-40.91,6.8,4.82,12.41,11.31,16.2,18.73"/><path class="d" d="m674.49,785.5c11.86,44.18.78,92.83-24.82,130.74s-64.63,65.56-107.13,82.46c-7.1-17.39,10.1-50.94,23.17-72.3.29-.47-.39-.91-.71-.47-8.94,12.52-21.37,30.63-26.58,37.19-1.46-19.87,7.5-38.89,16.83-56.49,23.07-43.5,50.8-86.09,90.78-114.84,4.84-3.48,16.96-10.47,16.96-10.47,8.94-7.66,44.29-150.3,43.15-219.32.16,1.74,10.72-73.51,10.72-73.51,5.74,35.39-.35,196.14-42.36,297"/><path class="d" d="m814.13,542.95s-8.4-19.29-16.34-29.81c-30.46-40.37-103.26-121.01-129.19-133.45l-94.19-72.5c82.84,31.19,146.44,97.82,206.99,162.38,21.24,22.64,36.51,46.2,57.75,68.83l-25.02,4.54Z"/></g><g><path class="d" d="m23.15,1005.32c-.57.73-1.14,1.45-1.71,2.18,71.4,10.65,143.94,13.69,215.98,9.07,39.97-2.57,80.22-7.59,117.75-21.58,37.53-13.99,72.43-37.66,94.08-71.35,7.42-11.55,13.19-24.07,18.92-36.55,10.39-22.6,20.78-45.19,31.18-67.79-60.92-20.64-126.29-45.73-190.35-33.33-49.62,9.61-92.1,40.62-131.71,72.02-55.83,44.25-110.06,91.37-154.14,147.33Z"/><path class="d" d="m637.05,682.4c-25.17,27.03-52.51,55.36-88.44,63.91-12.94,3.08-26.37,3.39-39.67,3.06-57.05-1.42-113.11-14.34-168.71-27.19,15.15,16.15,35.12,26.79,54.69,37.14,16.7,8.82,33.66,17.75,52.13,21.67,18.47,3.92,38.97,2.26,54.33-8.73,4.48-3.2,8.49-7.17,13.52-9.42,12.63-5.66,28.09.83,40.91-4.39-4.82,6.8-11.31,12.41-18.73,16.2"/><path class="d" d="m228.47,679.18c-44.18,11.86-92.83.78-130.74-24.82-37.91-25.6-65.56-64.63-82.46-107.13,17.39-7.1,50.94,10.1,72.3,23.17.47.29.91-.39.47-.71-12.52-8.94-30.63-21.37-37.19-26.58,19.87-1.46,38.89,7.5,56.49,16.83,43.5,23.07,86.09,50.8,114.84,90.78,3.48,4.84,10.47,16.96,10.47,16.96,7.66,8.94,150.3,44.29,219.32,43.15-1.74.16,73.51,10.72,73.51,10.72-35.39,5.74-196.14-.35-297-42.36"/><path class="d" d="m471.02,818.82s19.29-8.4,29.81-16.34c40.37-30.46,121.01-103.26,133.45-129.19l72.5-94.19c-31.19,82.84-97.82,146.44-162.38,206.99-22.64,21.24-46.2,36.51-68.83,57.75l-4.54-25.02Z"/></g></g></g></svg>